# xmcd CD database file
#
# Track frame offsets:
#	150
#	21547
#	36982
#	57522
#	71537
#	90727
#	108282
#	123790
#	140307
#	161815
#	177400
#	198160
#	218580
#	237370
#	265300
#	281400
#	298407
#	318022
#	335187
#
# Disc length: 4647 seconds
#
# Revision: 0
# Processed by: cddbd v1.5.2PL0 Copyright (c) Steve Scherf et al.
# Submitted via: CDex 1.70beta2
#
DISCID=26122513
DTITLE=Lisandro Meza - Pa'l Mundo
DYEAR=1900
DGENRE=Salsa
TTITLE0=Baracunatana
TTITLE1=Quisiera Hablarte
TTITLE2=Oyeme Daniel
TTITLE3=Cumbia Del Amor
TTITLE4=Elizabeth
TTITLE5=Estas Pillao
TTITLE6=La Alfombra Verde
TTITLE7=Salsipuedes
TTITLE8=Nina
TTITLE9=El Cruzero Del Amor
TTITLE10=Mar Azul
TTITLE11=Envidia
TTITLE12=Rio Sucuy
TTITLE13=Cancion Para Una Muerte Anunciada
TTITLE14=El Calendario
TTITLE15=Tu Seraas Mi Cumbia Yo Tu Mapale
TTITLE16=Acotejandoteme El Sombrero
TTITLE17=Amiga Mía
TTITLE18=Compartir
EXTD=
EXTT0=
EXTT1=
EXTT2=
EXTT3=
EXTT4=
EXTT5=
EXTT6=
EXTT7=
EXTT8=
EXTT9=
EXTT10=
EXTT11=
EXTT12=
EXTT13=
EXTT14=
EXTT15=
EXTT16=
EXTT17=
EXTT18=
PLAYORDER=
